<?xml version="1.0" encoding="utf-8"?>
<!-- Generator: Adobe Illustrator 23.0.1, SVG Export Plug-In . SVG Version: 6.00 Build 0)  -->
<svg version="1.1" id="Layer_1" xmlns="http://www.w3.org/2000/svg" xmlns:xlink="http://www.w3.org/1999/xlink" x="0px" y="0px"
	 viewBox="0 0 1080 1080" style="enable-background:new 0 0 1080 1080;" xml:space="preserve">
<style type="text/css">
	.st0{fill:#254F5B;}
	.st1{fill:#F18C00;}
</style>
<g>
	<polygon class="st0" points="398.67,998.2 398.67,394.43 138.54,244.24 138.54,848.01 	"/>
	<polygon class="st0" points="942.5,244.24 682.36,394.43 682.36,998.2 942.5,848.01 	"/>
	<polygon class="st0" points="909.12,244.24 540.52,457.05 859.17,244.24 	"/>
	<polygon class="st0" points="540.52,457.05 784.11,244.24 826.64,244.24 	"/>
	<polygon class="st0" points="221.86,244.24 540.52,457.05 171.91,244.24 	"/>
	<polygon class="st0" points="254.4,244.24 540.52,457.05 296.93,244.24 	"/>
	<polygon class="st1" points="532.17,709.16 509.92,696.31 509.92,741.28 532.17,754.12 	"/>
	<polygon class="st1" points="532.17,689.89 509.92,677.05 509.92,632.08 532.17,644.93 	"/>
	<polygon class="st1" points="548.86,471.51 548.86,689.89 587.8,667.41 587.8,603.18 626.74,580.7 626.74,644.93 665.68,622.45 
		665.68,513.26 587.8,558.22 587.8,538.95 665.68,493.99 665.68,449.03 587.8,493.99 587.8,449.03 	"/>
	<polygon class="st1" points="643.43,892.22 643.43,847.26 665.68,834.41 665.68,879.37 	"/>
	<polygon class="st1" points="643.43,763.76 643.43,718.8 665.68,705.95 665.68,750.91 	"/>
	<polygon class="st1" points="643.43,827.99 643.43,783.03 665.68,770.18 665.68,815.14 	"/>
	<path class="st1" d="M665.68,686.68v-44.96l-116.81,67.44v366.12l116.81-67.44V898.64L587.8,943.6v-19.27l38.94-22.48v-44.96
		l-38.94,22.48V860.1l38.94-22.48v-44.96l-38.94,22.48v-19.27l38.94-22.48v-44.96l-38.94,22.48v-19.27L665.68,686.68z
		 M626.74,966.08v19.27l-38.94,22.48v-19.27L626.74,966.08z"/>
	<path class="st1" d="M493.24,603.18v-64.23l38.94,22.48v-44.96l-77.88-44.96v-44.96l-38.94-22.48v603.77l116.81,67.44V966.08
		l-77.88-44.96v-19.27l77.88,44.96v-44.96l-77.88-44.96v-19.27l77.88,44.96v-44.96l-77.88-44.96v-19.27l77.88,44.96v-44.96
		l-77.88-44.96v-19.27l38.94,22.48V622.45l-38.94-22.48V580.7L493.24,603.18z M454.3,516.47l16.69,9.63v19.27l-16.69-9.63V516.47z
		 M493.24,988.57v19.27l-38.94-22.48v-19.27L493.24,988.57z M470.99,654.56v19.27l-16.69-9.63v-19.27L470.99,654.56z"/>
	<path class="st1" d="M510.23,379.22c-7.22-3.62-14.8-6.66-21.6-10.94c-38.58-24.33-59.71-58.93-59.98-105.1
		c-0.12-21.47,6.5-41.16,18.12-59.18c6.91-10.71,14.07-21.28,20.61-32.22c7.1-11.87,12.8-24.38,13.67-38.51
		c0.16-2.54,0.02-5.1,0.02-7.75c9.77,11.97,12.61,39.28,6.79,67.03c1.65-1.15,2.88-1.92,4.01-2.82
		c19.22-15.24,29.06-35.55,30.99-59.61c1.02-12.68,0.62-25.49,0.67-38.24c0.04-13.65,0.16-27.3,4.61-40.39
		c8.43-24.81,26.96-38.47,51.06-46.21c0.17,0.71,0.35,1.01,0.27,1.17c-12.05,22.99-9.97,46.17-0.93,69.42
		c7.45,19.15,18.64,36.1,31,52.34c16.6,21.81,32.48,44.06,43.6,69.33c8.27,18.8,13.91,38.26,14,58.96
		c0.15,32.51-13.72,58.27-38.56,78.54c-4.99,4.07-10.23,7.82-16.42,12.54c1.1-2.94,1.77-4.71,2.42-6.49
		c7.9-21.46,10.99-43.26,4.76-65.75c-3.19-11.51-9.54-21.36-15.84-31.31c-5.96-9.42-12.1-18.83-16.96-28.84
		c-6.52-13.42-6.69-26.47-1.91-39.63c-1.19,1.01-1.93,1.48-2.47,2.12c-12.58,14.75-15.42,31.77-10.51,50
		c3.01,11.17,7.28,22,11.21,32.9c4.69,13,8.9,26.02,8.02,40.15c-1.16,18.43-16.43,38.65-33.47,43.49
		c11.56-15.2,14.91-31.9,11.12-50.08c-2.41-11.57-6.95-22.06-14.98-29.6c0.69,7.4,2.07,15.43,2.03,23.45
		c-0.04,9.43-5.77,16.46-12.87,17.64c-7.47,1.24-14.26-3.27-18.31-12.02c-3.98-8.6-2.71-17.36-1.03-26.15
		c0.5-2.63,1.09-5.24,1.77-8.48c-9.24,3.46-15.87,9.11-21.09,16.49c-10.98,15.53-13.02,32.99-10.88,51.33
		c2.08,17.89,7.31,34.72,16.99,50.03c0.28,0.44,0.43,0.96,0.65,1.44C510.62,378.59,510.42,378.91,510.23,379.22"/>
</g>
</svg>
